<svg xmlns="http://www.w3.org/2000/svg" xmlns:xlink="http://www.w3.org/1999/xlink" width="23" height="23" viewBox="0 0 23 23">
    <defs>
        <circle id="a" cx="9.5" cy="9.5" r="9.5"/>
        <rect id="c" width="28" height="20" rx="2"/>
        <path id="e" d="M4.667 4L0 0h.667l4.666 3.333h1.334L12 0v.333a.716.716 0 0 1-.278.532L7.333 4v1.333l4.416 3.785c.139.119.096.215-.082.215-.184 0-.449-.082-.612-.198L6.667 6H5.333L0 9.333v-.666l4.667-3.334V4z"/>
        <linearGradient id="f" x1="50%" x2="50%" y1="0%" y2="100%">
            <stop offset="0%" stop-color="#FFF"/>
            <stop offset="100%" stop-color="#F0F0F0"/>
        </linearGradient>
        <linearGradient id="g" x1="50%" x2="50%" y1="0%" y2="100%">
            <stop offset="0%" stop-color="#FF2E3B"/>
            <stop offset="100%" stop-color="#FC0D1B"/>
        </linearGradient>
    </defs>
    <g fill="none" fill-rule="evenodd" transform="translate(2 2)">
        <mask id="b" fill="#fff">
            <use xlink:href="#a"/>
        </mask>
        <use fill="#FFF" xlink:href="#a"/>
        <circle cx="9.5" cy="9.5" r="10.25" stroke="#E1E1E1" stroke-width="1.5"/>
        <g mask="url(#b)">
            <mask id="d" fill="#fff">
                <use xlink:href="#c"/>
            </mask>
            <use fill="#FFF" xlink:href="#c"/>
            <path fill="#0A17A7" d="M0 0h28v20H0z" mask="url(#d)"/>
            <g mask="url(#d)">
                <use fill="#FF2E3B" xlink:href="#e"/>
                <path stroke="#FFF" stroke-width=".667" d="M4.333 4.153L-.9-.333H.667l.193.062L5.44 3h1.131l5.762-3.601v.934c0 .296-.17.627-.417.803l-4.25 3.036V5.18l4.3 3.685c.377.323.185.802-.3.802-.257 0-.588-.107-.804-.261L6.56 6.333H5.429L-.333 9.935v-1.44l4.666-3.333V4.153z"/>
            </g>
            <path fill="url(#f)" d="M0 3.333V6h4.667v3.34c0 .364.306.66.673.66h1.32a.67.67 0 0 0 .673-.66V6h4.658a.677.677 0 0 0 .676-.673v-1.32a.674.674 0 0 0-.676-.674H7.333V0H4.667v3.333H0z" mask="url(#d)"/>
            <path fill="url(#g)" d="M0 4h5.333V0h1.334v4H12v1.333H6.667v4H5.333v-4H0z" mask="url(#d)"/>
            <path fill="#FFF" d="M6 16.333l-1.176.618.225-1.309-.951-.927 1.314-.19L6 13.332l.588 1.191 1.314.191-.95.927.224 1.31zM20 17.333l-.943.276.276-.942-.276-.943L20 16l.943-.276-.276.943.276.942zM20 4.667l-.943.276.276-.943-.276-.943.943.276.943-.276-.276.943.276.943zM16 10l-.943.276.276-.943-.276-.942.943.276.943-.276-.276.942.276.943z" mask="url(#d)"/>
        </g>
    </g>
</svg>
