<svg xmlns="http://www.w3.org/2000/svg" xmlns:xlink="http://www.w3.org/1999/xlink" width="23" height="23" viewBox="0 0 23 23">
    <defs>
        <circle id="a" cx="9.5" cy="9.5" r="9.5"/>
        <rect id="c" width="28" height="20" rx="2"/>
    </defs>
    <g fill="none" fill-rule="evenodd" transform="translate(2 2)">
        <mask id="b" fill="#fff">
            <use xlink:href="#a"/>
        </mask>
        <use fill="#FFF" xlink:href="#a"/>
        <circle cx="9.5" cy="9.5" r="10.25" stroke="#E1E1E1" stroke-width="1.5"/>
        <g mask="url(#b)">
            <g transform="translate(0 -1)">
                <mask id="d" fill="#fff">
                    <use xlink:href="#c"/>
                </mask>
                <use fill="#FFF" xlink:href="#c"/>
                <rect width="27.5" height="19.5" x=".25" y=".25" stroke="#F5F5F5" stroke-width=".5" rx="2"/>
                <path fill="#E7243B" d="M0 0h28v20H0V0zm0 20h10l-2-1.333 2-1.334L8 16l2-1.333-2-1.334L10 12l-2-1.333 2-1.334L8 8l2-1.333-2-1.334L10 4 8 2.667l2-1.334L8 0H0v20z" mask="url(#d)"/>
            </g>
        </g>
    </g>
</svg>
