<?xml version="1.0" encoding="utf-8"?>
<!-- Generator: Adobe Illustrator 16.0.2, SVG Export Plug-In . SVG Version: 6.00 Build 0)  -->
<!DOCTYPE svg PUBLIC "-//W3C//DTD SVG 1.1//EN" "http://www.w3.org/Graphics/SVG/1.1/DTD/svg11.dtd">
<svg version="1.1" id="Layer_1" xmlns="http://www.w3.org/2000/svg" xmlns:xlink="http://www.w3.org/1999/xlink" x="0px" y="0px"
	 width="44px" height="44px" viewBox="0 0 44 44" enable-background="new 0 0 44 44" xml:space="preserve">
<path fill="none" stroke="#003399" d="M25.214,26.286c1.3-0.002,2.355,1.051,2.356,2.351c0,0.002,0,0.004,0,0.006
	c0.002,1.301-1.051,2.355-2.35,2.357c-0.003,0-0.005,0-0.007,0c-1.3,0.002-2.354-1.051-2.356-2.352c0-0.002,0-0.004,0-0.006
	c-0.002-1.3,1.051-2.355,2.351-2.356C25.21,26.286,25.212,26.286,25.214,26.286z M15.786,19.857c1.3-0.001,2.355,1.051,2.357,2.351
	c0,0.002,0,0.004,0,0.006c0.001,1.3-1.051,2.355-2.351,2.356c-0.002,0-0.004,0-0.006,0c-1.3,0.002-2.355-1.051-2.357-2.35
	c0-0.002,0-0.004,0-0.006c-0.002-1.3,1.051-2.355,2.351-2.357C15.782,19.857,15.784,19.857,15.786,19.857z M25.214,13.429
	c1.3-0.002,2.355,1.051,2.356,2.351c0,0.002,0,0.004,0,0.006c0.002,1.3-1.051,2.355-2.35,2.357c-0.003,0-0.005,0-0.007,0
	c-1.3,0.001-2.354-1.051-2.356-2.351c0-0.002,0-0.004,0-0.006c-0.002-1.3,1.051-2.355,2.351-2.357
	C25.21,13.429,25.212,13.429,25.214,13.429z M25.214,13c-1.54,0.004-2.786,1.256-2.782,2.796c0.001,0.369,0.075,0.734,0.218,1.074
	l-4.909,3.362c-0.521-0.515-1.223-0.804-1.955-0.803c-1.538,0.001-2.784,1.247-2.786,2.785c0.001,1.538,1.248,2.784,2.786,2.786
	c0.761,0,1.452-0.307,1.955-0.805l4.909,3.363c-0.598,1.42,0.07,3.055,1.49,3.651c0.34,0.144,0.705,0.218,1.074,0.218
	c1.537-0.002,2.782-1.247,2.785-2.783c-0.002-1.539-1.248-2.785-2.786-2.787c-0.996,0-1.871,0.531-2.362,1.32l-4.83-3.309
	c0.734-0.98,0.734-2.328,0-3.308l4.83-3.308c0.506,0.818,1.4,1.317,2.362,1.32C26.753,18.571,28,17.324,28,15.785
	C27.998,14.248,26.752,13.001,25.214,13z"/>
</svg>
