<svg xmlns="http://www.w3.org/2000/svg" xmlns:xlink="http://www.w3.org/1999/xlink" width="23" height="23" viewBox="0 0 23 23">
    <defs>
        <circle id="a" cx="9.5" cy="9.5" r="9.5"/>
        <rect id="c" width="28" height="20" rx="2"/>
    </defs>
    <g fill="none" fill-rule="evenodd" transform="translate(2 2)">
        <mask id="b" fill="#fff">
            <use xlink:href="#a"/>
        </mask>
        <use fill="#FFF" xlink:href="#a"/>
        <circle cx="9.5" cy="9.5" r="10.25" stroke="#E1E1E1" stroke-width="1.5"/>
        <g mask="url(#b)">
            <mask id="d" fill="#fff">
                <use xlink:href="#c"/>
            </mask>
            <use fill="#FFF" xlink:href="#c"/>
            <path fill="#F1361D" d="M0 0h28v20H0z" mask="url(#d)"/>
            <path fill="#FFDC42" d="M13.506 7.977l-.84.511.023-.982-.51-.84.982.023.839-.51-.023.982.511.839-.982-.023zM11.04 5.266l-.968-.165.661-.727.165-.968.727.661.968.166-.661.726-.166.968-.726-.661zm.487 8.705l-.82.54-.012-.983-.54-.82.982-.012.821-.54.012.982.54.821-.983.012zm1.69-2.648l-.977.108.436-.88-.108-.977.88.436.977-.108-.436.88.108.977-.88-.436zM6.667 10.227l-2.351 1.676.867-2.754-2.32-1.718 2.887-.026.917-2.738.917 2.738 2.887.026-2.32 1.718.867 2.754z" mask="url(#d)"/>
        </g>
    </g>
</svg>
