<svg xmlns="http://www.w3.org/2000/svg" xmlns:xlink="http://www.w3.org/1999/xlink" width="23" height="23" viewBox="0 0 23 23">
    <defs>
        <circle id="a" cx="9.5" cy="9.5" r="9.5"/>
        <rect id="c" width="28" height="20" x=".5" y=".5" rx="2"/>
    </defs>
    <g fill="none" fill-rule="evenodd" transform="translate(2 2)">
        <mask id="b" fill="#fff">
            <use xlink:href="#a"/>
        </mask>
        <use fill="#FFF" xlink:href="#a"/>
        <circle cx="9.5" cy="9.5" r="10.25" stroke="#E1E1E1" stroke-width="1.5"/>
        <g mask="url(#b)">
            <g transform="translate(-5 -1)">
                <mask id="d" fill="#fff">
                    <use xlink:href="#c"/>
                </mask>
                <use fill="#FFF" xlink:href="#c"/>
                <path fill="#043CAE" d="M.5.5h28v20H.5z" mask="url(#d)"/>
                <path fill="#FFD429" d="M14.5 4.5l-.943.276.276-.943-.276-.942.943.276.943-.276-.276.942.276.943L14.5 4.5zm0 13.333l-.943.276.276-.942-.276-.943.943.276.943-.276-.276.943.276.942-.943-.276zm6.667-6.666l-.943.276.276-.943-.276-.943.943.276.942-.276-.276.943.276.943-.942-.276zm-13.334 0l-.942.276.276-.943-.276-.943.942.276.943-.276-.276.943.276.943-.943-.276zm12.44-3.334l-.942.276.276-.942-.276-.943.943.276.942-.276-.276.943.276.942-.942-.276zM8.727 14.5l-.942.276.276-.943-.276-.942.942.276.943-.276-.276.942.276.943-.943-.276zm9.107-9.107l-.942.276.276-.943-.276-.942.942.276.943-.276-.276.942.276.943-.943-.276zM11.167 16.94l-.943.276.276-.942-.276-.943.943.276.942-.276-.276.943.276.942-.942-.276zm9.107-2.44l-.943.276.276-.943-.276-.942.943.276.942-.276-.276.942.276.943-.942-.276zM8.726 7.833l-.942.276.276-.942-.276-.943.942.276.943-.276-.276.943.276.942-.943-.276zm9.107 9.107l-.942.276.276-.942-.276-.943.942.276.943-.276-.276.943.276.942-.943-.276zM11.167 5.393l-.943.276.276-.943-.276-.942.943.276.942-.276-.276.942.276.943-.942-.276z" mask="url(#d)"/>
            </g>
        </g>
    </g>
</svg>
