<svg width="48" height="48" viewBox="0 0 48 48" fill="none" xmlns="http://www.w3.org/2000/svg">
<path d="M24 16.2002C24 13.7138 22.992 11.4626 21.3648 9.8354C19.7376 8.20819 17.4864 7.2002 15 7.2002C12.5136 7.2002 10.2624 8.20819 8.6352 9.8354C7.008 11.4626 6 13.7138 6 16.2002C6 18.6866 7.008 20.9378 8.6352 22.565L24 39.6002L26.2752 37.0754L39.3648 22.565C41.1456 20.6594 42 18.6866 42 16.2002C42 13.7138 40.992 11.4626 39.3648 9.8354C37.7376 8.20819 35.4864 7.2002 33 7.2002C30.5136 7.2002 28.2624 8.20819 26.6352 9.8354C25.008 11.4626 24 13.7138 24 16.2002Z" stroke="black" stroke-width="2.5" stroke-miterlimit="10"/>
</svg>
