<svg width="48" height="48" viewBox="0 0 48 48" fill="none" xmlns="http://www.w3.org/2000/svg">
<path d="M32.3984 21.6006C35.7121 21.6006 38.3984 18.9143 38.3984 15.6006C38.3984 12.2869 35.7121 9.60059 32.3984 9.60059C29.0847 9.60059 26.3984 12.2869 26.3984 15.6006C26.3984 18.9143 29.0847 21.6006 32.3984 21.6006Z" stroke="black" stroke-width="2.5" stroke-miterlimit="10"/>
<path d="M15.5986 38.4004C18.9123 38.4004 21.5986 35.7141 21.5986 32.4004C21.5986 29.0867 18.9123 26.4004 15.5986 26.4004C12.2849 26.4004 9.59863 29.0867 9.59863 32.4004C9.59863 35.7141 12.2849 38.4004 15.5986 38.4004Z" stroke="black" stroke-width="2.5" stroke-miterlimit="10"/>
<path d="M38.5 15.6006H43.1992" stroke="black" stroke-width="2.5" stroke-miterlimit="10"/>
<path d="M4.79883 15.6006H26.5572" stroke="black" stroke-width="2.5" stroke-miterlimit="10"/>
<path d="M21.7236 32.4004H43.1988" stroke="black" stroke-width="2.5" stroke-miterlimit="10"/>
<path d="M4.79883 32.4004H9.78123" stroke="black" stroke-width="2.5" stroke-miterlimit="10"/>
</svg>
