<svg xmlns="http://www.w3.org/2000/svg" xmlns:xlink="http://www.w3.org/1999/xlink" width="23" height="23" viewBox="0 0 23 23">
    <defs>
        <circle id="a" cx="9.5" cy="9.5" r="9.5"/>
    </defs>
    <g fill="none" fill-rule="evenodd" transform="translate(2 2)">
        <mask id="b" fill="#fff">
            <use xlink:href="#a"/>
        </mask>
        <use fill="#DE2910" xlink:href="#a"/>
        <circle cx="9.5" cy="9.5" r="10.25" stroke="#E1E1E1" stroke-width="1.5"/>
        <path fill="#FFF" d="M10.958 3.446c-.564.292-.794.935-.41 1.49.161.235.249.551.233.879-.021.33-.12.651-.387.95-.407.55-1.17.58-1.314 1.405-.034.379.024.75.296 1.09-.426-.404-.702-.847-.793-1.338-.096-.512.007-1.077.346-1.706l-.067-.036c-.348.645-.453 1.227-.355 1.756.097.516.388.98.838 1.4-.773-.45-1.273-.985-1.609-1.842-.435-1.553.288-3.206 1.795-3.84.454-.191.93-.253 1.427-.208zm-6.636 2.83c-.19.46-.275.933-.228 1.423.156 1.628 1.517 2.812 3.13 2.86.918-.065 1.578-.38 2.238-.985-.536.304-1.065.444-1.587.381-.534-.063-1.058-.338-1.57-.862l.055-.054c.5.511 1.008.779 1.524.84.496.059 1.002-.071 1.514-.357-.405.158-.777.102-1.128-.044-.745-.383-.545-1.12-.949-1.673a1.503 1.503 0 0 0-.791-.653 1.44 1.44 0 0 0-.908-.039c-.645.2-1.19-.21-1.3-.837zm1.361 1.829l.27.225.297-.188-.131.327.27.224-.35-.024-.13.326-.086-.34-.35-.023.297-.187-.087-.34zm6.253 6.962a2.933 2.933 0 0 0 1.025-1.015c.835-1.405.435-3.164-.837-4.155-.78-.49-1.5-.625-2.388-.527.611.07 1.12.271 1.505.63.393.366.654.897.758 1.622l-.075.011c-.102-.707-.355-1.223-.735-1.578-.366-.34-.85-.533-1.433-.606.42.112.688.377.885.702.374.75-.222 1.225-.223 1.91a1.5 1.5 0 0 0 .254.995c.182.273.44.475.71.568.638.219.836.873.554 1.443zm-.018-2.28l-.085-.341-.35-.024.298-.186-.086-.34.269.226.297-.187-.132.325.27.226-.35-.025-.131.326zm3.73-3.83a2.94 2.94 0 0 0-.605-1.308c-1.037-1.264-2.827-1.486-4.193-.628-.725.567-1.097 1.198-1.308 2.067.275-.55.637-.962 1.104-1.201.48-.245 1.067-.31 1.785-.16l-.015.074c-.7-.145-1.271-.083-1.735.154-.444.228-.79.618-1.057 1.14.248-.357.588-.518.961-.592.832-.098 1.077.625 1.72.859.363.171.699.174 1.022.1.318-.078.596-.251.775-.474.424-.526 1.106-.488 1.546-.03zm-2.15-.757l-.349-.037-.142.322-.073-.345-.35-.035.305-.176-.075-.343.261.235.304-.176-.143.32.262.235zm-8.683 5.167c.625.112 1.198-.26 1.232-.934.013-.285.136-.589.348-.84.217-.25.49-.445.885-.519.657-.19 1.28.25 1.896-.318.257-.28.438-.61.428-1.045.092.58.042 1.1-.184 1.545-.234.464-.66.85-1.311 1.144l.032.07c.668-.302 1.105-.7 1.348-1.18.237-.468.288-1.014.185-1.621.342.827.413 1.555.159 2.441-.598 1.498-2.177 2.37-3.76 1.959a2.928 2.928 0 0 1-1.258-.702zm2.184-.652l.35.035.073.344.141-.322.35.037-.262-.234.142-.321-.303.177-.262-.235.075.343-.304.176zm2.62-7.424l-.3.185-.266-.229.083.342-.3.183.35.026.082.342.134-.325.35.028-.268-.227.135-.325z" mask="url(#b)"/>
    </g>
</svg>
