<svg width="67" height="67" viewBox="0 0 67 67" fill="none" xmlns="http://www.w3.org/2000/svg">
<g opacity="0.9">
<rect x="1" y="0.639648" width="65" height="65" rx="32.5" fill="white"/>
<path d="M38.8337 42.4733C38.8337 43.2097 39.4306 43.8066 40.167 43.8066C40.9034 43.8066 41.5003 43.2097 41.5003 42.4733L38.8337 42.4733ZM38.8337 23.8066L38.8337 42.4733L41.5003 42.4733L41.5003 23.8066L38.8337 23.8066Z" fill="#003399"/>
<path d="M28.1663 23.8066C28.1663 23.0703 27.5694 22.4733 26.833 22.4733C26.0966 22.4733 25.4997 23.0703 25.4997 23.8066L28.1663 23.8066ZM25.4997 23.8066L25.4997 42.4733L28.1663 42.4733L28.1663 23.8066L25.4997 23.8066Z" fill="#003399"/>
<path d="M32.167 37.1393L26.8337 42.4727L21.5003 37.1393" stroke="#003399" stroke-width="2.66667" stroke-linecap="round" stroke-linejoin="round"/>
<path d="M34.833 29.14L40.1663 23.8066L45.4997 29.14" stroke="#003399" stroke-width="2.66667" stroke-linecap="round" stroke-linejoin="round"/>
<rect x="1" y="0.639648" width="65" height="65" rx="32.5" stroke="#D6D6D6"/>
</g>
</svg>
