<svg xmlns="http://www.w3.org/2000/svg" xmlns:xlink="http://www.w3.org/1999/xlink" width="23" height="23" viewBox="0 0 23 23">
    <defs>
        <circle id="a" cx="9.5" cy="9.5" r="9.5"/>
        <circle id="c" cx="3.333" cy="3.333" r="3.333"/>
    </defs>
    <g fill="none" fill-rule="evenodd" transform="translate(2 2)">
        <mask id="b" fill="#fff">
            <use xlink:href="#a"/>
        </mask>
        <use fill="#FFF" xlink:href="#a"/>
        <circle cx="9.5" cy="9.5" r="10.25" stroke="#E1E1E1" stroke-width="1.5"/>
        <g mask="url(#b)">
            <g transform="translate(6.167 6.31)">
                <mask id="d" fill="#fff">
                    <use xlink:href="#c"/>
                </mask>
                <use fill="#E01B41" xlink:href="#c"/>
                <path fill="#0E4B9C" d="M0 3.81c.952.892 2.381 1.428 3.333 0 .953-1.429 2.857-1.429 3.334 0 .476 1.428 0 2.857 0 2.857H0s-.952-3.75 0-2.857z" mask="url(#d)"/>
            </g>
            <path fill="#262626" d="M13.074 6.309a.33.33 0 0 1 .124-.45l.248-.144a.335.335 0 0 1 .452.117L15 7.74a.33.33 0 0 1-.124.45l-.248.144a.335.335 0 0 1-.453-.118l-1.1-1.906zm1.237-.715a.33.33 0 0 1 .124-.45L14.683 5a.335.335 0 0 1 .452.117l1.101 1.907a.33.33 0 0 1-.124.45l-.248.143a.335.335 0 0 1-.452-.117L14.31 5.594zM2.764 12.261a.33.33 0 0 1 .124-.45l.248-.144a.335.335 0 0 1 .452.118L4.69 13.69a.33.33 0 0 1-.124.45l-.248.144a.335.335 0 0 1-.452-.117L2.764 12.26zM4 11.547a.33.33 0 0 1 .124-.45l.248-.144a.335.335 0 0 1 .453.117l1.1 1.907a.33.33 0 0 1-.124.45l-.248.144a.335.335 0 0 1-.452-.118L4 11.547zm10.173-.477a.33.33 0 0 1 .453-.117l.248.143c.159.092.211.3.124.45l-1.1 1.907a.33.33 0 0 1-.453.118l-.248-.143a.335.335 0 0 1-.124-.45l1.1-1.908zm1.238.715a.33.33 0 0 1 .452-.118l.248.144c.159.092.211.3.124.45l-1.1 1.907a.33.33 0 0 1-.453.117l-.248-.143a.335.335 0 0 1-.124-.45l1.1-1.907zM3.865 5.118a.33.33 0 0 1 .452-.117l.248.143c.159.092.211.3.124.45l-1.1 1.907a.33.33 0 0 1-.453.117l-.248-.143a.335.335 0 0 1-.124-.45l1.1-1.907zm1.237.714a.33.33 0 0 1 .452-.117l.248.143c.16.092.212.3.124.45l-1.1 1.907a.33.33 0 0 1-.453.118l-.248-.144a.335.335 0 0 1-.124-.45l1.1-1.907z" opacity=".75"/>
        </g>
    </g>
</svg>
