<svg width="24" height="24" viewBox="0 0 24 25" fill="none" xmlns="http://www.w3.org/2000/svg">
<path d="M19.3637 10.8636C19.3637 16.5909 12.0001 21.5 12.0001 21.5C12.0001 21.5 4.63647 16.5909 4.63647 10.8636C4.63647 8.91068 5.41228 7.03771 6.79323 5.65676C8.17418 4.27581 10.0472 3.5 12.0001 3.5C13.9531 3.5 15.826 4.27581 17.207 5.65676C18.5879 7.03771 19.3637 8.91068 19.3637 10.8636Z" stroke="white" stroke-width="2" stroke-linecap="round" stroke-linejoin="round"/>
<path d="M12 13.3183C13.3556 13.3183 14.4545 12.2193 14.4545 10.8637C14.4545 9.50812 13.3556 8.40918 12 8.40918C10.6443 8.40918 9.54541 9.50812 9.54541 10.8637C9.54541 12.2193 10.6443 13.3183 12 13.3183Z" stroke="white" stroke-width="2" stroke-linecap="round" stroke-linejoin="round"/>
</svg>
