<svg width="24" height="24" viewBox="0 0 24 24" fill="none" xmlns="http://www.w3.org/2000/svg">
<path d="M19.3636 10.3636C19.3636 16.0909 12 21 12 21C12 21 4.63635 16.0909 4.63635 10.3636C4.63635 8.41068 5.41216 6.53771 6.79311 5.15676C8.17406 3.77581 10.047 3 12 3C13.9529 3 15.8259 3.77581 17.2069 5.15676C18.5878 6.53771 19.3636 8.41068 19.3636 10.3636Z" stroke="#606060" stroke-width="2" stroke-linecap="round" stroke-linejoin="round"/>
<path d="M12 12.8183C13.3556 12.8183 14.4545 11.7193 14.4545 10.3637C14.4545 9.00812 13.3556 7.90918 12 7.90918C10.6443 7.90918 9.54541 9.00812 9.54541 10.3637C9.54541 11.7193 10.6443 12.8183 12 12.8183Z" stroke="#606060" stroke-width="2" stroke-linecap="round" stroke-linejoin="round"/>
</svg>
