<svg width="48" height="48" viewBox="0 0 48 48" fill="none" xmlns="http://www.w3.org/2000/svg">
<path fill-rule="evenodd" clip-rule="evenodd" d="M37.9681 21C35.7595 21 33.9686 22.791 33.9686 25.0005C33.9686 27.209 35.7595 29 37.9681 29C40.1776 29 41.9686 27.209 41.9686 25.0005C41.9686 22.791 40.1776 21 37.9681 21ZM9.9995 21C7.79099 21 6 22.791 6 25.0005C6 27.209 7.79099 29 9.9995 29C12.209 29 14 27.209 14 25.0005C14 22.791 12.209 21 9.9995 21ZM27.9793 25.0005C27.9793 27.209 26.1883 29 23.9798 29C21.7703 29 19.9793 27.209 19.9793 25.0005C19.9793 22.791 21.7703 21 23.9798 21C26.1883 21 27.9793 22.791 27.9793 25.0005Z" fill="black"/>
</svg>
