<svg xmlns="http://www.w3.org/2000/svg" xmlns:xlink="http://www.w3.org/1999/xlink" width="23" height="23" viewBox="0 0 23 23">
    <defs>
        <circle id="a" cx="9.5" cy="9.5" r="9.5"/>
        <rect id="c" width="28" height="20" rx="2"/>
    </defs>
    <g fill="none" fill-rule="evenodd" transform="translate(2 2)">
        <mask id="b" fill="#fff">
            <use xlink:href="#a"/>
        </mask>
        <use fill="#FFF" xlink:href="#a"/>
        <circle cx="9.5" cy="9.5" r="10.25" stroke="#E1E1E1" stroke-width="1.5"/>
        <g mask="url(#b)">
            <mask id="d" fill="#fff">
                <use xlink:href="#c"/>
            </mask>
            <use fill="#FFF" xlink:href="#c"/>
            <path fill="#E1244A" d="M13.333 0H28v1.333H13.333V0zm0 2.667H28V4H13.333V2.667zm0 2.666H28v1.334H13.333V5.333zm0 2.667H28v1.333H13.333V8zM0 10.667h28V12H0v-1.333zm0 2.666h28v1.334H0v-1.334zM0 16h28v1.333H0V16zm0 2.667h28V20H0v-1.333z" mask="url(#d)"/>
            <path fill="#0C3F8E" d="M0 0h20v10.667H0z" mask="url(#d)"/>
            <path fill="#FFD34F" d="M10.885 2.793a3.019 3.019 0 1 0 0 5.659 3.623 3.623 0 1 1 0-5.659zm1.36 3.82l-1.047 1.186.273-1.559-1.58-.08 1.389-.758-.923-1.285 1.459.614.43-1.523.429 1.523 1.459-.614-.923 1.285 1.389.758-1.58.08.273 1.559-1.048-1.186z" mask="url(#d)"/>
        </g>
    </g>
</svg>
