<svg xmlns="http://www.w3.org/2000/svg" xmlns:xlink="http://www.w3.org/1999/xlink" width="23" height="23" viewBox="0 0 23 23">
    <defs>
        <circle id="a" cx="9.5" cy="9.5" r="9.5"/>
        <rect id="c" width="28" height="20" rx="2"/>
    </defs>
    <g fill="none" fill-rule="evenodd" transform="translate(2 2)">
        <mask id="b" fill="#fff">
            <use xlink:href="#a"/>
        </mask>
        <use fill="#FFF" xlink:href="#a"/>
        <circle cx="9.5" cy="9.5" r="10.25" stroke="#E1E1E1" stroke-width="1.5"/>
        <g mask="url(#b)">
            <g transform="translate(0 -.5)">
                <mask id="d" fill="#fff">
                    <use xlink:href="#c"/>
                </mask>
                <use fill="#FFF" xlink:href="#c"/>
                <rect width="27.5" height="19.5" x=".25" y=".25" stroke="#F5F5F5" stroke-width=".5" rx="2"/>
                <path fill="#138E16" d="M0 13.333h28V20H0z" mask="url(#d)"/>
                <path fill="#ED2B35" d="M0 20h9.333v-6.667H28V6.667H9.333V0H0z" mask="url(#d)"/>
                <path fill="#FFF" d="M4.667 4.712L3.51 6.402l.6-1.958-2.043.15 1.906-.752-1.391-1.505L4.358 3.36l.309-2.026.308 2.026 1.777-1.022L5.36 3.842l1.905.751-2.043-.15.6 1.96z" mask="url(#d)"/>
            </g>
        </g>
    </g>
</svg>
