<svg xmlns="http://www.w3.org/2000/svg" xmlns:xlink="http://www.w3.org/1999/xlink" width="23" height="23" viewBox="0 0 23 23">
    <defs>
        <circle id="a" cx="9.5" cy="9.5" r="9.5"/>
        <rect id="c" width="28" height="20" rx="2"/>
    </defs>
    <g fill="none" fill-rule="evenodd" transform="translate(2 2)">
        <mask id="b" fill="#fff">
            <use xlink:href="#a"/>
        </mask>
        <use fill="#FFF" xlink:href="#a"/>
        <circle cx="9.5" cy="9.5" r="10.25" stroke="#E1E1E1" stroke-width="1.5"/>
        <g mask="url(#b)">
            <g transform="translate(-.7 -.5)">
                <mask id="d" fill="#fff">
                    <use xlink:href="#c"/>
                </mask>
                <use fill="#FFF" xlink:href="#c"/>
                <rect width="27.5" height="19.5" x=".25" y=".25" stroke="#F5F5F5" stroke-width=".5" rx="2"/>
                <g mask="url(#d)">
                    <path fill="#DD1C34" d="M-.1 14.667V20h28V9.333H12.344l.89.667L-.1 20v-5.333z"/>
                    <path fill="#0D4BC3" d="M-.1 4.667V0h28v9.333H12.344L-.1 0v4.667z"/>
                </g>
                <path fill="#FDD64D" d="M4.532 11.327l-1.14 1.753.432-2.047a1.341 1.341 0 0 1-.19-.19l-2.047.433 1.753-1.141a1.35 1.35 0 0 1 0-.27l-1.753-1.14 2.046.432c.057-.07.121-.133.19-.19L3.392 6.92l1.141 1.753a1.35 1.35 0 0 1 .27 0l1.14-1.753-.432 2.047c.07.057.133.12.19.19l2.046-.433-1.753 1.141a1.35 1.35 0 0 1 0 .27l1.753 1.14-2.046-.432c-.057.07-.12.133-.19.19l.432 2.047-1.14-1.753a1.35 1.35 0 0 1-.27 0zm5.468-.66a.667.667 0 1 1 0-1.334.667.667 0 0 1 0 1.334zM2 4a.667.667 0 1 1 0-1.333A.667.667 0 0 1 2 4zm0 13.333A.667.667 0 1 1 2 16a.667.667 0 0 1 0 1.333z" mask="url(#d)"/>
            </g>
        </g>
    </g>
</svg>
