<svg xmlns="http://www.w3.org/2000/svg" xmlns:xlink="http://www.w3.org/1999/xlink" width="23" height="23" viewBox="0 0 23 23">
    <defs>
        <circle id="a" cx="9.5" cy="9.5" r="9.5"/>
    </defs>
    <g fill="none" fill-rule="evenodd" transform="translate(2 2)">
        <mask id="b" fill="#fff">
            <use xlink:href="#a"/>
        </mask>
        <use fill="#FFF" xlink:href="#a"/>
        <circle cx="9.5" cy="9.5" r="10.25" stroke="#E1E1E1" stroke-width="1.5"/>
        <path fill="#128C4B" d="M-4.5-1h28v20h-28z" mask="url(#b)"/>
        <g mask="url(#b)">
            <path fill="#FFF" fill-rule="nonzero" d="M13.822 13.671a.533.533 0 0 0-.238-.224.331.331 0 0 1-.184-.23c-.022-.142-.01-.153.088-.078.124.095.265.05.265-.086 0-.206-.33-.237-1.286-.123-.717.086-1.543.112-3.554.113-3.523.001-4.34-.097-5.603-.672-.36-.165-.802-.419-.983-.565L2 11.54l.463.17c.65.239 1.665.467 2.52.567.923.108 4.779.11 5.968.004 2.158-.192 2.367-.223 2.446-.359.108-.186.046-.296-.094-.167-.063.059-.135.088-.16.065-.089-.082-.043-.282.085-.368a.368.368 0 0 0 .142-.247c.006-.088.029-.175.05-.195.058-.054.26.122.26.227 0 .051.06.093.134.093.074 0 .17.073.213.162.092.186.038.274-.103.166-.134-.103-.219.11-.098.245.112.124.247.125.618.001.16-.053.493-.098.74-.1.413-.003.463.013.636.204.235.258.24.471.016.711-.168.182-.176.183-.364.07-.105-.064-.19-.146-.19-.182 0-.116-.181-.07-.275.069-.097.143-.41.18-.597.07-.14-.082-.367.101-.364.294.002.13.01.132.098.024.115-.14.191-.088.191.13 0 .088-.057.18-.127.207-.072.028-.128.12-.128.211 0 .22-.16.256-.258.059z"/>
            <g fill="#FFF" fill-rule="nonzero">
                <path d="M3.27 7.14c.028.342.122.98.122 1.198.009.228.037.162.093.038s.047-.257.037-.437c-.018-.19-.028-.504-.065-.932a.662.662 0 0 0 .168-.21c.075-.142.093-.133.121-.019.056.229.28.38.579.162.28-.2.159-.618.037-1.075.103.02.14-.066.075-.18-.028-.067-.084-.124-.13-.181-.047-.057-.094-.105-.14-.048-.038.058-.085.105-.113.143-.028.038-.028.076.01.171.112.267.186.552.205.714.028.152-.028.19-.13.19-.103 0-.243-.029-.3-.257-.055-.228-.083-.333-.074-.485.01-.152.028-.257-.075-.409-.112-.152-.121-.124-.149-.048-.019.086-.056.21-.019.352.047.21.075.39.103.514.019.085-.065.266-.187.361-.028-.285-.074-.665-.093-.97.159-.057.075-.276-.056-.513-.093-.181-.13-.105-.196.01-.065.113-.019.16.028.256-.037.076.028.19.056.4.01.133.037.513.065.846-.13 0-.205-.086-.252-.2a.843.843 0 0 1-.028-.599c.047-.143.094-.361.01-.418-.075-.058-.178.009-.243.114a1.376 1.376 0 0 0-.224.675c-.01.104-.037.304-.084.38-.037.076-.103.086-.168-.028-.112-.181-.15-.637-.14-.875 0-.114-.028-.133-.065 0-.122.456.018.95.12 1.16.104.21.234.162.328-.01.14-.256.084-.484.214-.865.075-.238.103-.057.075.086-.065.38-.047.998.485.989z"/>
                <path d="M2.15 8.005c.27-.333.616-.504.794-.561.112-.038.168-.086.168.029.009.104 0 .114-.094.142a3.423 3.423 0 0 0-.812.4c-.074.057-.168.123-.056-.01zM4.316 7.786c-.038.01-.075.029-.103.038-.168.048-.196-.019-.187-.123.01-.105.019-.133.131-.086.047.02.103.086.159.171l.252-.095a.983.983 0 0 0-.215-.295c-.168-.17-.308-.18-.448.029-.13.2-.121.247-.112.428.01.18-.028.247.112.295.13.047.187.028.27 0 .066-.02.16-.048.253-.086.018.095.009.2-.047.276-.345.418-.877.723-1.11.447-.131-.152-.187-.39-.15-.675.037-.238-.037-.133-.065-.048-.084.276-.112.675 0 .875.158.276.41.4.812.219.401-.18.793-.504.774-.951 0-.086-.009-.162-.009-.219.037-.019.103-.066.15-.085.009.152-.01.342 0 .494.018.485-.169.628-.337.76a1.87 1.87 0 0 1-.821.362c-.644.095-.793-.323-.784-.884 0-.086.037-.143.037-.267-.01-.237-.037-.2-.112.039-.065.228-.15.76.066 1.198.224.437.98.314 1.568.028.578-.285.644-.827.616-1.37 0-.142-.01-.294-.019-.456.019-.01.028-.028.037-.038.084.276.476.2.598.038.065-.076.065-.085.121 0 .084.124.373.162.448-.01a.993.993 0 0 0 .037-.484c-.018-.133-.046-.124-.13-.057-.094.076-.019.085-.01.18.038.362-.27.333-.308-.038-.018-.228-.056-.142-.084-.038-.13.447-.513.533-.476.02.01-.153-.084-.105-.13-.048-.047.038-.084.086-.131.114-.028-.418-.056-.894-.103-1.464.112.142.215-.02.14-.181-.056-.124-.14-.4-.196-.552-.046-.152-.074-.104-.196.02-.112.132-.093.16-.037.294-.019.162.01.323.047.656.028.238.102.733.14 1.36-.056.029-.14.086-.196.114l-.252.095z"/>
                <path d="M6.145 5.514a.668.668 0 0 0 .047-.124c.018-.057-.028-.114-.066-.029-.028.067-.037.114.02.153l-.104.18c-.12-.104-.12-.257-.074-.39.112-.294.485-.256.382.124a.82.82 0 0 1-.074.21c.056.075.028.17-.084.151-.122.2-.355.419-.756.6-.187.085-.215.018-.075-.067.27-.18.523-.4.681-.628l.103-.18zM6.574 5.552c-.149.428-.14.836.168 1.188.178.2.308.105.383-.114.084-.209.14-.418.196-.56.056-.144.103-.115.093.018-.028.266-.046.694.215.856.261.162.663-.114.803-.4.42.571.793.305.84-.247a2.161 2.161 0 0 0-.112-.646c-.047-.114-.019-.114.047-.057.065.066.177.104.12-.086a.794.794 0 0 0-.242-.37c-.093-.086-.112-.039-.15.028-.036.066-.027.085-.083.133-.056.057-.047.085 0 .19.159.418.308 1.027.056 1.084-.233.048-.383-.466-.392-.694-.01-.304-.047-.561-.103-.723-.065-.162-.084-.19-.13-.104-.038.066-.047.114-.085.18-.037.067 0 .086.028.219.14.666.122.97-.177 1.141-.299.18-.457.01-.457-.2a3.8 3.8 0 0 1 .018-.656c.02-.19.066-.218 0-.314-.065-.104-.12-.066-.205.057-.187.267-.373.714-.439.923-.065.219-.196.143-.289-.038-.103-.219-.093-.609-.056-.76.037-.153.019-.22-.047-.048z"/>
                <path d="M9.197 7.644c.066-.02.13-.029.206-.048.196-.047.084-.066-.047-.152-.14-.086-.196-.086-.187.01.01.057.01.114.028.19l-.242.076c-.16-.238-.056-.41.065-.59.15-.219.392-.152.672.048s.168.513-.103.675c-.065.038-.15.076-.252.114.028.067-.01.086-.093.029-.243.085-.56.209-.784.332.27.02 1.39 0 1.615-.028.224-.02.186.019.12.219-.064.19-.14.17-.326.2-.298.056-.737.19-1.054.323-.318.133-.206.37.12.494.253.067.225.095.178.247-.037.143-.037.181-.345.134-.756-.124-1.027-.552-1.148-.885-.467.675-.924 1.046-1.354.932-.214-.047-.317-.247-.336-.494a7.436 7.436 0 0 1-1.092.4c-.102.037-.186-.01-.046-.077a9.39 9.39 0 0 0 1.148-.685c.037-.17.121-.409.205-.58.047-.104.075-.066.075.02 0 .066-.019.237-.01.36.066-.057.16-.114.206-.161.261-.238.55-.39.354-.77-.084-.172-.149-.295-.177-.371-.168-.067-.121-.162-.047-.324.075-.161.103-.2.252-.019.215.257.243.371.094.352.233.609.177.923-.187 1.284-.168.18-.345.323-.55.438-.02.161.046.323.345.275.392-.057.83-.58 1.017-.98-.084-.332-.27-.931-.383-1.236-.056-.152 0-.218.047-.342.056-.123.084-.2.15-.028.065.161.27.57.363 1.055.103.485.084.904.327 1.132a.91.91 0 0 0 .401.21c-.112-.324.122-.572.43-.686-.187-.18-.476-.152-.803-.17-.243-.01-.215-.039-.15-.258.066-.218.14-.247.318-.323.243-.095.486-.19.738-.266l.242-.076z"/>
                <path d="M8.114 7.254a.374.374 0 0 0 .056.285c.047.067.14.057.168-.019.028-.085.047-.095.103-.028.066.066.28.01.178-.324-.047-.133-.066-.104-.066.048 0 .238-.074.238-.159.01-.028-.086-.065-.086-.074.028 0 .219-.094.247-.15.028-.018-.095-.037-.17-.056-.028zM11.577 8.652c-.084-.428-.466-1.113-1.036-2.007a8.43 8.43 0 0 1-.028-.656c.084.095.14.038.112-.086-.056-.218-.14-.399-.242-.646-.038-.105-.14-.133-.187.019-.065.18-.075.219.01.342-.01.133.037.362.055.57-.102-.151-.233-.342-.336-.503.159.066.252.019.112-.133-.14-.162-.336-.324-.457-.438-.121-.114-.177-.038-.159.067.01.104.019.18.01.266-.01.086.018.143.14.19.242.323.485.656.709.999.028.285.084.599.112.856.075.608.187 1.398.093 1.74-.074.257 0 .37.122-.02.112-.389.102-.76.028-1.34-.028-.228-.038-.514-.066-.78.392.618.747 1.208.906 1.617.084.219.158.266.102-.057zM9.45 9.489c.093-.057.14-.105.214-.133.075-.039.13-.029.075.133-.056.19-.028.247.093.2.112-.039.177-.086.27-.124.085-.038.178-.038.047.066-.102.086-.252.2-.336.219-.186.048-.28-.028-.242-.18.037-.143.065-.2-.047-.153-.13.057-.121 0-.075-.028z"/>
                <path d="M11.792 5.856c.075.066.159.066.112-.076-.047-.143-.084-.314-.13-.476-.047-.161-.075-.2-.131-.123-.066.085-.112.114-.159.17-.047.048-.056.153 0 .248.205 1.436.215 2.073.243 2.606.028.532.102.78-.224 1.141-.355.39-.57.485-.728.523-.196.057-.271.143.028.124.438-.029.504-.038.858-.466.206-.229.308-.533.29-1.237-.019-1.236-.187-1.768-.159-2.434zM12.436 5.903c.13.067.27.105.168-.057-.103-.152-.187-.409-.243-.599-.065-.19-.084-.18-.186-.019-.159.247-.019.485.018.77.131 1.018.262 2.055.299 2.33.037.305.084.504.01.837-.029.105.009.133.074.01.261-.504.084-.942.056-1.227-.047-.437-.196-1.598-.224-2.064M13.08 6.674c-.019.085-.13.085-.121-.01.009-.095 0-.076 0-.152-.01-.076.084-.124.13-.057.056.067.15.276.178.352.037.076.056.057.056-.048-.01-.123-.028-.237-.019-.323a.272.272 0 0 1 .093-.152c.066-.048.103-.057.131.028.019.076.075.086.047.153-.038.095-.122-.096-.178.038-.028.095 0 .36-.009.456 0 .086-.037.21-.103.067-.046-.095-.112-.257-.205-.352zM13.052 7.843c0-.066.028-.085.14-.18.093-.076.355-.267.439-.352.084-.086.149-.162.168-.057.009.104.028.142-.075.2a3.727 3.727 0 0 0-.457.285c-.094.076-.215.171-.215.104z"/>
                <path d="M15.61 8.595c-.02-.133-.057-.267-.225-.523-.168-.248-.317-.476-.466-.695-.047-.57-.112-1.179-.112-1.502.074.076.13 0 .093-.124-.037-.123-.112-.456-.168-.599-.047-.133-.103-.104-.177.02-.066.123-.112.18-.066.275.02.552.094 1.084.178 1.57-.15-.21-.29-.41-.42-.59-.01-.21-.028-.419-.038-.628.084.066.122.047.075-.076a8.882 8.882 0 0 0-.187-.533c-.046-.123-.074-.123-.14-.028-.102.161-.13.275-.046.428.009.133.028.275.037.399a5.268 5.268 0 0 1-.224-.333c.084.048.15-.028.056-.114-.084-.086-.261-.228-.336-.333-.084-.104-.159-.104-.159-.01 0 .096.01.181 0 .267-.018.076-.018.152.094.285.214.267.42.542.616.8.074.95.121 1.559.102 1.94-.009.227-.084.36-.205.399-.121.047-.243-.039-.355-.21-.205-.304-.28-.247-.438.02-.15.247-.252.456-.336.637-.075.17-.206.323-.327.095a1.39 1.39 0 0 1-.121-.666c0-.18-.028-.323-.094-.038-.168.704-.065.856.122 1.008.233.21.308.228.429.047.243-.342.308-.646.448-.817.112-.134.112-.029.168.038.14.18.261.247.457.275.196.038.551-.133.523-.798-.019-.4-.047-.942-.084-1.522.187.266.355.504.485.694.066.38.103.723.084.999-.018.314.047.314.112-.01a3.993 3.993 0 0 0-.009-.741c.252.342.401.57.504.732.112.2.177.37.15-.038z"/>
                <path d="M15.824 5.751c.103.095.159.067.093-.095-.074-.161-.149-.333-.214-.485-.075-.161-.094-.123-.178-.01-.093.115-.102.2-.065.267.177 1.512.261 2.301.28 2.758.037.665-.121 1.036-.756 1.464-.205.143-.439.305.056.181.485-.124 1.008-.456.952-1.835-.047-1.237-.205-1.779-.168-2.245z"/>
            </g>
        </g>
    </g>
</svg>
