<svg xmlns="http://www.w3.org/2000/svg" xmlns:xlink="http://www.w3.org/1999/xlink" width="23" height="23" viewBox="0 0 23 23">
    <defs>
        <circle id="a" cx="9.5" cy="9.5" r="9.5"/>
        <rect id="c" width="28" height="20" rx="2"/>
    </defs>
    <g fill="none" fill-rule="evenodd" transform="translate(2 2)">
        <mask id="b" fill="#fff">
            <use xlink:href="#a"/>
        </mask>
        <use fill="#FFF" xlink:href="#a"/>
        <circle cx="9.5" cy="9.5" r="10.25" stroke="#E1E1E1" stroke-width="1.5"/>
        <g mask="url(#b)">
            <g transform="translate(-9)">
                <mask id="d" fill="#fff">
                    <use xlink:href="#c"/>
                </mask>
                <use fill="#FFF" xlink:href="#c"/>
                <rect width="27.5" height="19.5" x=".25" y=".25" stroke="#F5F5F5" stroke-width=".5" rx="2"/>
                <path fill="#E12237" d="M0 0h28v10.667H0z" mask="url(#d)"/>
                <path fill="#FFF" d="M19.165 2.21a3.333 3.333 0 1 0 0 6.248 4 4 0 1 1 0-6.248zm-1.832 3.123a.667.667 0 1 1 0-1.333.667.667 0 0 1 0 1.333zM18.667 8a.667.667 0 1 1 0-1.333.667.667 0 0 1 0 1.333zm2.666 0a.667.667 0 1 1 0-1.333.667.667 0 0 1 0 1.333zm1.334-2.667a.667.667 0 1 1 0-1.333.667.667 0 0 1 0 1.333zm-2.667-2A.667.667 0 1 1 20 2a.667.667 0 0 1 0 1.333z" mask="url(#d)"/>
            </g>
        </g>
    </g>
</svg>
