<svg xmlns="http://www.w3.org/2000/svg" xmlns:xlink="http://www.w3.org/1999/xlink" width="23" height="23" viewBox="0 0 23 23">
    <defs>
        <circle id="a" cx="9.5" cy="9.5" r="9.5"/>
    </defs>
    <g fill="none" fill-rule="evenodd" transform="translate(2 2)">
        <mask id="b" fill="#fff">
            <use xlink:href="#a"/>
        </mask>
        <use fill="#FFF" xlink:href="#a"/>
        <circle cx="9.5" cy="9.5" r="10.25" stroke="#E1E1E1" stroke-width="1.5"/>
        <path fill="#3B3A6D" d="M-3.88-.566H9.78V10.06H-3.88V-.566zm1.738.817h-.477l-.137-.408-.136.408h-.477l.375.273-.136.477.374-.307.375.272-.136-.442.375-.273zM9.133 9.005h-.444l-.17-.409-.137.41H7.94l.375.272-.17.477.374-.307.375.307-.137-.477.376-.273zm-2.248 0h-.478l-.136-.409-.137.41h-.476l.375.272-.137.477.375-.307.375.307-.137-.477.376-.273zm-2.283 0h-.443l-.136-.409-.136.41H3.41l.375.272-.17.477.408-.307.374.307-.136-.477.34-.273zm-2.249 0h-.442l-.136-.409-.17.41h-.443l.374.272-.17.477.409-.307.375.307-.171-.477.374-.273zm-2.247 0h-.443l-.17-.409-.136.41h-.443l.375.272-.171.477.374-.307.375.307-.136-.477.375-.273zm-2.248 0h-.477l-.137-.409-.136.41h-.477l.375.272-.136.477.374-.307.375.307-.136-.477.375-.273zM7.94 7.915h-.443l-.136-.408-.136.408h-.477l.374.274-.17.476.409-.307.375.272-.171-.441.375-.274zm-2.248 0h-.443l-.17-.408-.136.408h-.444l.376.274-.17.476.374-.307.374.272-.136-.441.375-.274zm-2.248 0h-.477l-.136-.408-.136.408h-.477l.374.274-.136.476.375-.307.374.272-.136-.441.375-.274zm-2.248 0H.719l-.136-.408-.136.408H-.03l.374.274-.137.476.376-.307.374.272L.82 8.19l.376-.274zm-2.282 0h-.443l-.136-.408-.137.408h-.477l.375.274-.17.476.409-.307.374.272-.17-.441.375-.274zm9.026-2.18h-.443l-.136-.408-.136.408h-.477l.374.273-.17.442.409-.272.375.272-.171-.442.375-.273zm-2.248 0h-.443l-.17-.408-.136.408h-.444l.376.273-.17.442.374-.272.374.272-.136-.442.375-.273zm-2.248 0h-.477l-.136-.408-.136.408h-.477l.374.273-.136.442.375-.272.374.272-.136-.442.375-.273zm-2.248 0H.719l-.136-.408-.136.408H-.03l.374.273-.137.442.376-.272.374.272-.137-.442.376-.273zm-2.282 0h-.443l-.136-.408-.137.408h-.477l.375.273-.17.442.409-.272.374.272-.17-.442.375-.273zm9.026-2.18h-.443l-.136-.442-.136.443h-.477l.374.271-.17.444.409-.273.375.273-.171-.444.375-.271zm-2.248 0h-.443l-.17-.442-.136.443h-.444l.376.271-.17.444.374-.273.374.273-.136-.444.375-.271zm-2.248 0h-.477l-.136-.442-.136.443h-.477l.374.271-.136.444.375-.273.374.273-.136-.444.375-.271zm-2.248 0H.719l-.136-.442-.136.443H-.03l.374.271-.137.444.376-.273.374.273-.137-.444.376-.271zm-2.282 0h-.443l-.136-.442-.137.443h-.477l.375.271-.17.444.409-.273.374.273-.17-.444.375-.271zM7.94 1.342h-.443L7.361.933l-.136.408h-.477l.374.273-.17.477.409-.307.375.307-.171-.477.375-.273zm-2.248 0h-.443L5.08.933l-.136.408h-.444l.376.273-.17.477.374-.307.374.307-.136-.477.375-.273zm-2.248 0h-.477L2.83.933l-.136.408h-.477l.374.273-.136.477.375-.307.374.307-.136-.477.375-.273zm-2.248 0H.719L.583.933l-.136.408H-.03l.374.273-.137.477.376-.307.374.307-.137-.477.376-.273zm-2.282 0h-.443l-.136-.408-.137.408h-.477l.375.273-.17.477.409-.307.374.307-.17-.477.375-.273zM9.133 6.826h-.444l-.17-.41-.137.41H7.94l.375.272-.17.442.374-.271.375.271-.137-.442.376-.272zm-2.248 0h-.478l-.136-.41-.137.41h-.476l.375.272-.137.442.375-.271.375.271-.137-.442.376-.272zm-2.283 0h-.443l-.136-.41-.136.41H3.41l.375.272-.17.442.408-.271.374.271-.136-.442.34-.272zm-2.249 0h-.442l-.136-.41-.17.41h-.443l.374.272-.17.442.409-.271.375.271-.171-.442.374-.272zm-2.247 0h-.443l-.17-.41-.136.41h-.443l.375.272-.171.442.374-.271.375.271-.136-.442.375-.272zm-2.248 0h-.477l-.137-.41-.136.41h-.477l.375.272-.136.442.374-.271.375.271-.136-.442.375-.272zm11.275-2.18h-.444l-.17-.444-.137.443H7.94l.375.273-.17.443.374-.272.375.272-.137-.443.376-.273zm-2.248 0h-.478l-.136-.444-.137.443h-.476l.375.273-.137.443.375-.272.375.272-.137-.443.376-.273zm-2.283 0h-.443l-.136-.444-.136.443H3.41l.375.273-.17.443.408-.272.374.272-.136-.443.34-.273zm-2.249 0h-.442l-.136-.444-.17.443h-.443l.374.273-.17.443.409-.272.375.272-.171-.443.374-.273zm-2.247 0h-.443l-.17-.444-.136.443h-.443l.375.273-.171.443.374-.272.375.272-.136-.443.375-.273zm-2.248 0h-.477l-.137-.444-.136.443h-.477l.375.273-.136.443.374-.272.375.272-.136-.443.375-.273zm11.275-2.18h-.444l-.17-.443-.137.443H7.94l.375.272-.17.443.374-.273.375.273-.137-.443.376-.272zm-2.248 0h-.478l-.136-.443-.137.443h-.476l.375.272-.137.443.375-.273.375.273-.137-.443.376-.272zm-2.283 0h-.443l-.136-.443-.136.443H3.41l.375.272-.17.443.408-.273.374.273-.136-.443.34-.272zm-2.249 0h-.442l-.136-.443-.17.443h-.443l.374.272-.17.443.409-.273.375.273-.171-.443.374-.272zm-2.247 0h-.443l-.17-.443-.136.443h-.443l.375.272-.171.443.374-.273.375.273-.136-.443.375-.272zm-2.248 0h-.477l-.137-.443-.136.443h-.477l.375.272-.136.443.374-.273.375.273-.136-.443.375-.272zM9.133.25h-.444l-.17-.408-.137.408H7.94l.375.273-.17.477.374-.307.375.272-.137-.442.376-.273zm-2.248 0h-.478l-.136-.408-.137.408h-.476l.375.273-.137.477.375-.307.375.272-.137-.442.376-.273zm-2.283 0h-.443l-.136-.408-.136.408H3.41l.375.273-.17.477.408-.307.374.272-.136-.442.34-.273zm-2.249 0h-.442l-.136-.408-.17.408h-.443l.374.273-.17.477.409-.307.375.272-.171-.442.374-.273zm-2.247 0h-.443l-.17-.408-.136.408h-.443l.375.273-.171.477.374-.307.375.272-.136-.442.375-.273z" mask="url(#b)"/>
        <path fill="#CF2B38" d="M9.78-.566H26.19V.966H9.78V-.566zm0 3.032H26.19v1.532H9.78V2.466zm0 3.031H26.19V7.03H9.78V5.497zm0 3.031H26.19v1.533H9.78V8.528zM-3.88 11.56h30.071v1.533h-30.07V11.56zm0 3.032h30.071v1.533h-30.07v-1.533zm0 3.032h30.071v1.532h-30.07v-1.532z" mask="url(#b)"/>
    </g>
</svg>
